<svg width="16" height="16" viewBox="0 0 16 16" fill="none" xmlns="http://www.w3.org/2000/svg">
<rect width="16" height="16" rx="8" fill="white"/>
<path d="M3.65341 8.02273C3.58239 8.02273 3.51906 8.01681 3.46342 8.00497C3.40779 7.99432 3.36932 7.98366 3.34801 7.97301L3.45455 7.60369C3.55634 7.62973 3.64631 7.6392 3.72443 7.6321C3.80256 7.625 3.8718 7.59008 3.93217 7.52734C3.99373 7.46579 4.04995 7.36577 4.10085 7.22727L4.17898 7.0142L3.17045 4.27273H3.625L4.37784 6.44602H4.40625L5.15909 4.27273H5.61364L4.45597 7.39773C4.40388 7.53859 4.33937 7.65518 4.26243 7.74751C4.18549 7.84103 4.09612 7.91027 3.99432 7.95526C3.8937 8.00024 3.78007 8.02273 3.65341 8.02273ZM7.21254 7.05682C6.94975 7.05682 6.72307 6.99882 6.53249 6.88281C6.3431 6.76562 6.19691 6.60227 6.09393 6.39276C5.99213 6.18205 5.94123 5.93703 5.94123 5.65767C5.94123 5.37831 5.99213 5.1321 6.09393 4.91903C6.19691 4.70478 6.34014 4.53788 6.52362 4.41832C6.70827 4.29759 6.92371 4.23722 7.16992 4.23722C7.31197 4.23722 7.45224 4.26089 7.59073 4.30824C7.72923 4.35559 7.85529 4.43253 7.96893 4.53906C8.08256 4.64441 8.17312 4.78409 8.24059 4.9581C8.30806 5.1321 8.3418 5.34635 8.3418 5.60085V5.77841H6.23952V5.41619H7.91566C7.91566 5.26231 7.88488 5.125 7.82333 5.00426C7.76296 4.88352 7.67655 4.78823 7.5641 4.71839C7.45283 4.64856 7.32144 4.61364 7.16992 4.61364C7.00302 4.61364 6.85861 4.65507 6.73668 4.73793C6.61594 4.8196 6.52302 4.92614 6.45792 5.05753C6.39281 5.18892 6.36026 5.32978 6.36026 5.48011V5.72159C6.36026 5.92756 6.39577 6.10215 6.4668 6.24538C6.539 6.38743 6.63903 6.49574 6.76687 6.57031C6.89471 6.6437 7.04326 6.6804 7.21254 6.6804C7.32262 6.6804 7.42205 6.66501 7.51083 6.63423C7.60079 6.60227 7.67833 6.55492 7.74343 6.49219C7.80853 6.42827 7.85884 6.34896 7.89435 6.25426L8.29918 6.3679C8.25657 6.50521 8.18496 6.62595 8.08434 6.73011C7.98372 6.8331 7.85943 6.91359 7.71147 6.97159C7.56351 7.02841 7.39719 7.05682 7.21254 7.05682ZM10.1227 7.05682C9.85991 7.05682 9.63323 6.99882 9.44265 6.88281C9.25326 6.76562 9.10707 6.60227 9.00408 6.39276C8.90228 6.18205 8.85138 5.93703 8.85138 5.65767C8.85138 5.37831 8.90228 5.1321 9.00408 4.91903C9.10707 4.70478 9.2503 4.53788 9.43377 4.41832C9.61843 4.29759 9.83387 4.23722 10.0801 4.23722C10.2221 4.23722 10.3624 4.26089 10.5009 4.30824C10.6394 4.35559 10.7654 4.43253 10.8791 4.53906C10.9927 4.64441 11.0833 4.78409 11.1507 4.9581C11.2182 5.1321 11.252 5.34635 11.252 5.60085V5.77841H9.14968V5.41619H10.8258C10.8258 5.26231 10.795 5.125 10.7335 5.00426C10.6731 4.88352 10.5867 4.78823 10.4743 4.71839C10.363 4.64856 10.2316 4.61364 10.0801 4.61364C9.91317 4.61364 9.76876 4.65507 9.64684 4.73793C9.5261 4.8196 9.43318 4.92614 9.36808 5.05753C9.30297 5.18892 9.27042 5.32978 9.27042 5.48011V5.72159C9.27042 5.92756 9.30593 6.10215 9.37695 6.24538C9.44916 6.38743 9.54918 6.49574 9.67702 6.57031C9.80487 6.6437 9.95342 6.6804 10.1227 6.6804C10.2328 6.6804 10.3322 6.66501 10.421 6.63423C10.5109 6.60227 10.5885 6.55492 10.6536 6.49219C10.7187 6.42827 10.769 6.34896 10.8045 6.25426L11.2093 6.3679C11.1667 6.50521 11.0951 6.62595 10.9945 6.73011C10.8939 6.8331 10.7696 6.91359 10.6216 6.97159C10.4737 7.02841 10.3074 7.05682 10.1227 7.05682ZM13.0755 4.27273V4.62784H11.6621V4.27273H13.0755ZM12.074 3.61932H12.4931V6.21875C12.4931 6.33712 12.5102 6.4259 12.5446 6.48509C12.5801 6.54309 12.6251 6.58215 12.6795 6.60227C12.7351 6.62121 12.7937 6.63068 12.8553 6.63068C12.9015 6.63068 12.9393 6.62831 12.9689 6.62358C12.9985 6.61766 13.0222 6.61293 13.04 6.60938L13.1252 6.9858C13.0968 6.99645 13.0571 7.0071 13.0062 7.01776C12.9553 7.02959 12.8908 7.03551 12.8127 7.03551C12.6943 7.03551 12.5783 7.01006 12.4647 6.95916C12.3522 6.90826 12.2587 6.83073 12.1841 6.72656C12.1107 6.6224 12.074 6.491 12.074 6.33239V3.61932Z" fill="black"/>
<path d="M3.3054 11V10.6804L4.85369 8.69176V8.66335H3.35511V8.27273H5.39347V8.60653L3.88778 10.581V10.6094H5.44318V11H3.3054ZM6.89116 11.0639C6.71834 11.0639 6.56149 11.0314 6.42063 10.9663C6.27977 10.9 6.16791 10.8047 6.08505 10.6804C6.00219 10.5549 5.96076 10.4034 5.96076 10.2259C5.96076 10.0696 5.99154 9.94295 6.05309 9.84588C6.11464 9.74763 6.19691 9.67069 6.29989 9.61506C6.40288 9.55942 6.51651 9.51799 6.6408 9.49077C6.76628 9.46236 6.89234 9.43987 7.019 9.4233C7.18472 9.40199 7.31907 9.38601 7.42205 9.37536C7.52622 9.36352 7.60198 9.34399 7.64933 9.31676C7.69786 9.28954 7.72212 9.24219 7.72212 9.17472V9.16051C7.72212 8.98532 7.67418 8.8492 7.5783 8.75213C7.48361 8.65507 7.33978 8.60653 7.14684 8.60653C6.94679 8.60653 6.78995 8.65033 6.67631 8.73793C6.56268 8.82552 6.48278 8.91903 6.43661 9.01847L6.03888 8.87642C6.10991 8.7107 6.2046 8.58168 6.32298 8.48935C6.44253 8.39583 6.57274 8.33073 6.7136 8.29403C6.85565 8.25616 6.99532 8.23722 7.13263 8.23722C7.22023 8.23722 7.32085 8.24787 7.43448 8.26918C7.5493 8.2893 7.65998 8.33132 7.76651 8.39524C7.87423 8.45916 7.9636 8.55563 8.03462 8.68466C8.10565 8.81368 8.14116 8.98651 8.14116 9.20312V11H7.72212V10.6307H7.70082C7.67241 10.6899 7.62506 10.7532 7.55877 10.8207C7.49248 10.8881 7.4043 10.9455 7.29421 10.9929C7.18413 11.0402 7.04978 11.0639 6.89116 11.0639ZM6.95508 10.6875C7.1208 10.6875 7.26048 10.6549 7.37411 10.5898C7.48893 10.5247 7.57534 10.4407 7.63335 10.3377C7.69253 10.2347 7.72212 10.1264 7.72212 10.0128V9.62926C7.70437 9.65057 7.66531 9.6701 7.60494 9.68786C7.54575 9.70443 7.4771 9.71922 7.39897 9.73224C7.32203 9.74408 7.24686 9.75473 7.17347 9.7642C7.10127 9.77249 7.04267 9.77959 6.99769 9.78551C6.88879 9.79972 6.78699 9.8228 6.69229 9.85476C6.59878 9.88554 6.52302 9.93229 6.46502 9.99503C6.4082 10.0566 6.37979 10.1406 6.37979 10.2472C6.37979 10.3928 6.43365 10.5028 6.54137 10.5774C6.65027 10.6508 6.78817 10.6875 6.95508 10.6875ZM9.32502 9.35938V11H8.90598V7.36364H9.32502V8.69886H9.36053C9.42445 8.558 9.52033 8.44614 9.64817 8.36328C9.7772 8.27924 9.94883 8.23722 10.1631 8.23722C10.3489 8.23722 10.5117 8.2745 10.6514 8.34908C10.791 8.42247 10.8994 8.53551 10.9763 8.68821C11.0544 8.83973 11.0935 9.03267 11.0935 9.26705V11H10.6744V9.29545C10.6744 9.07884 10.6182 8.91134 10.5058 8.79297C10.3945 8.67341 10.24 8.61364 10.0423 8.61364C9.90504 8.61364 9.78193 8.64264 9.67303 8.70064C9.56531 8.75864 9.48008 8.84328 9.41735 8.95455C9.35579 9.06581 9.32502 9.20076 9.32502 9.35938ZM12.4141 7.36364L12.3786 9.97727H11.9666L11.9311 7.36364H12.4141ZM12.1726 11.0284C12.085 11.0284 12.0098 10.997 11.9471 10.9343C11.8844 10.8716 11.853 10.7964 11.853 10.7088C11.853 10.6212 11.8844 10.546 11.9471 10.4833C12.0098 10.4206 12.085 10.3892 12.1726 10.3892C12.2602 10.3892 12.3353 10.4206 12.3981 10.4833C12.4608 10.546 12.4922 10.6212 12.4922 10.7088C12.4922 10.7668 12.4774 10.8201 12.4478 10.8686C12.4194 10.9171 12.3809 10.9562 12.3324 10.9858C12.285 11.0142 12.2318 11.0284 12.1726 11.0284Z" fill="black"/>
</svg>
